HIERARCHY
ROOT Hips
{
	OFFSET 0.00000 0.00000 0.00000
	CHANNELS 6 Xposition Yposition Zposition Zrotation Yrotation Xrotation 
	JOINT LHipJoint
	{
		OFFSET 0 0 0
		CHANNELS 3 Zrotation Yrotation Xrotation
		JOINT LeftUpLeg
		{
			OFFSET 1.58161 -1.81893 0.78828
			CHANNELS 3 Zrotation Yrotation Xrotation
			JOINT LeftLeg
			{
				OFFSET 2.53374 -6.96141 0.00000
				CHANNELS 3 Zrotation Yrotation Xrotation
				JOINT LeftFoot
				{
					OFFSET 2.63509 -7.23986 0.00000
					CHANNELS 3 Zrotation Yrotation Xrotation
					JOINT LeftToeBase
					{
						OFFSET 0.14115 -0.38781 2.05350
						CHANNELS 3 Zrotation Yrotation Xrotation
						End Site
						{
							OFFSET 0.00000 -0.00000 1.05543
						}
					}
				}
			}
		}
	}
	JOINT RHipJoint
	{
		OFFSET 0 0 0
		CHANNELS 3 Zrotation Yrotation Xrotation
		JOINT RightUpLeg
		{
			OFFSET -1.11138 -1.81893 0.78828
			CHANNELS 3 Zrotation Yrotation Xrotation
			JOINT RightLeg
			{
				OFFSET -2.58392 -7.09926 0.00000
				CHANNELS 3 Zrotation Yrotation Xrotation
				JOINT RightFoot
				{
					OFFSET -2.66423 -7.31992 0.00000
					CHANNELS 3 Zrotation Yrotation Xrotation
					JOINT RightToeBase
					{
						OFFSET -0.18831 -0.51739 2.12114
						CHANNELS 3 Zrotation Yrotation Xrotation
						End Site
						{
							OFFSET -0.00000 -0.00000 1.09845
						}
					}
				}
			}
		}
	}
	JOINT LowerBack
	{
		OFFSET 0 0 0
		CHANNELS 3 Zrotation Yrotation Xrotation
		JOINT Spine
		{
			OFFSET -0.01511 1.97958 -0.08829
			CHANNELS 3 Zrotation Yrotation Xrotation
			JOINT Spine1
			{
				OFFSET 0.08344 1.97334 -0.04330
				CHANNELS 3 Zrotation Yrotation Xrotation
				JOINT Neck
				{
					OFFSET 0 0 0
					CHANNELS 3 Zrotation Yrotation Xrotation
					JOINT Neck1
					{
						OFFSET 0.00559 1.76246 0.31246
						CHANNELS 3 Zrotation Yrotation Xrotation
						JOINT Head
						{
							OFFSET -0.07011 1.80354 -0.30524
							CHANNELS 3 Zrotation Yrotation Xrotation
							End Site
							{
								OFFSET -0.02385 1.83547 -0.13906
							}
						}
					}
				}
				JOINT LeftShoulder
				{
					OFFSET 0 0 0
					CHANNELS 3 Zrotation Yrotation Xrotation
					JOINT LeftArm
					{
						OFFSET 3.20667 1.30156 -0.60240
						CHANNELS 3 Zrotation Yrotation Xrotation
						JOINT LeftForeArm
						{
							OFFSET 4.95663 -0.00000 0.00000
							CHANNELS 3 Zrotation Yrotation Xrotation
							JOINT LeftHand
							{
								OFFSET 3.38177 -0.00000 0.00000
								CHANNELS 3 Zrotation Yrotation Xrotation
								JOINT LeftFingerBase
								{
									OFFSET 0 0 0
									CHANNELS 3 Zrotation Yrotation Xrotation
									JOINT LeftHandIndex1
									{
										OFFSET 0.66291 -0.00000 0.00000
										CHANNELS 3 Zrotation Yrotation Xrotation
										End Site
										{
											OFFSET 0.53445 -0.00000 0.00000
										}
									}
								}
								JOINT LThumb
								{
									OFFSET 0 0 0
									CHANNELS 3 Zrotation Yrotation Xrotation
									End Site
									{
										OFFSET 0.54261 -0.00000 0.54261
									}
								}
							}
						}
					}
				}
				JOINT RightShoulder
				{
					OFFSET 0 0 0
					CHANNELS 3 Zrotation Yrotation Xrotation
					JOINT RightArm
					{
						OFFSET -3.06877 1.34672 -0.60964
						CHANNELS 3 Zrotation Yrotation Xrotation
						JOINT RightForeArm
						{
							OFFSET -5.08365 -0.00000 0.00000
							CHANNELS 3 Zrotation Yrotation Xrotation
							JOINT RightHand
							{
								OFFSET -3.35984 -0.00000 0.00000
								CHANNELS 3 Zrotation Yrotation Xrotation
								JOINT RightFingerBase
								{
									OFFSET 0 0 0
									CHANNELS 3 Zrotation Yrotation Xrotation
									JOINT RightHandIndex1
									{
										OFFSET -0.82076 -0.00000 0.00000
										CHANNELS 3 Zrotation Yrotation Xrotation
										End Site
										{
											OFFSET -0.66172 -0.00000 0.00000
										}
									}
								}
								JOINT RThumb
								{
									OFFSET 0 0 0
									CHANNELS 3 Zrotation Yrotation Xrotation
									End Site
									{
										OFFSET -0.67182 -0.00000 0.67182
									}
								}
							}
						}
					}
				}
			}
		}
	}
}
MOTION
Frames: 12
Frame Time: .0083333
-0.3812 17.9108 -7.2796 0 0 0 0 0 0 -21 0 0 0 0 0 0 0 0 0 0 0 0 0 0 21 0 0 0 0 0 0 0 0 0 0 0 0 0 0 0 0 0 0 0 0 0 0 -16 0 0 21 0 0 11 0 0 0 -8 0 0 0 0 0 0 0 0 0 0 0 0 0 0 0 0 0 0 0 0 8 0 0 0 0 0 0 0 0 0 0 0 0 0 0 0 0 0
-0.3812 17.9108 -7.2796 -7.9632 -1.1933 7.9751 0.0000 0.0000 0.0000 -7.3589 -5.3226 -17.6131 3.3039 11.1714 32.8603 1.0472 -3.7985 -18.4453 0.0988 -2.0274 -5.5813 0.0000 0.0000 0.0000 25.2255 7.3815 -14.3841 -2.2460 -9.3607 26.9301 -0.7696 1.0800 -16.2447 -0.0339 -1.1890 3.2691 2.6950 0.7518 -4.5031 4.8742 0.7432 -0.1316 3.5689 0.3752 2.3626 1.1632 0.4699 -12.2387 -4.9588 2.5306 42.7315 -2.0818 0.5555 18.1084 -0.0000 0.0000 0.0000 -88.6634 1.9309 25.7660 14.4806 -23.4176 -3.0165 -0.0000 0.0000 -1.2978 5.0351 32.8001 2.7326 -7.1250 0.0000 -0.0000 -31.3234 60.0517 -12.2142 -0.0000 0.0000 0.0000 84.0281 -0.1758 20.7902 -13.9985 22.7325 -2.8275 0.0000 -0.0000 -7.0830 -17.7988 10.7090 -3.4140 7.1250 -0.0000 -0.0000 6.5415 -18.7865 4.1132
-0.3770 17.9084 -7.2793 -7.9350 -1.2758 7.9717 0.0000 0.0000 0.0000 -7.4173 -5.3326 -17.5538 3.2954 11.1586 32.8167 1.0480 -3.7341 -18.4611 0.0952 -1.9903 -5.4788 0.0000 0.0000 0.0000 25.1695 7.3974 -14.4178 -2.2568 -9.3816 26.9963 -0.7711 1.1411 -16.2438 -0.0321 -1.1557 3.1773 2.7272 0.7752 -4.5117 4.8446 0.7719 -0.1152 3.5222 0.3900 2.3839 1.1540 0.4848 -12.2260 -4.9629 2.5579 42.7068 -2.0760 0.5646 18.0916 -0.0000 0.0000 0.0000 -88.6458 1.9783 25.8655 14.4631 -23.3929 -3.0095 -0.0000 0.0000 -1.3514 5.1430 32.7242 2.7856 -7.1250 0.0000 -0.0000 -31.1428 60.0127 -12.1059 -0.0000 0.0000 0.0000 84.0758 -0.1372 20.8200 -13.9707 22.6928 -2.8168 0.0000 -0.0000 -7.0930 -17.8934 10.7768 -3.4548 7.1250 -0.0000 -0.0000 6.4749 -18.7093 4.0819
-0.3743 17.9076 -7.2796 -7.8440 -1.3482 7.9696 0.0000 0.0000 0.0000 -7.5500 -5.2790 -17.5335 3.2930 11.1549 32.8041 1.0610 -3.6054 -18.5986 0.1312 -2.3344 -6.4307 0.0000 0.0000 0.0000 25.0452 7.4308 -14.4249 -2.2626 -9.3928 27.0321 -0.7735 1.2175 -16.2490 -0.0383 -1.2632 3.4734 2.6644 0.7769 -4.5208 4.8129 0.7756 -0.0778 3.5254 0.3912 2.4271 1.1363 0.5270 -12.3212 -4.9551 2.6285 42.7291 -2.0579 0.5899 18.1351 -0.0000 0.0000 0.0000 -88.6394 1.9571 25.9560 14.4323 -23.3494 -2.9973 -0.0000 0.0000 -1.4679 5.2023 32.7717 2.8214 -7.1250 0.0000 -0.0000 -31.1292 60.0668 -12.1406 -0.0000 0.0000 0.0000 84.0965 -0.0775 20.9514 -13.9585 22.6754 -2.8121 0.0000 -0.0000 -7.1012 -18.0568 10.7512 -3.4802 7.1250 -0.0000 -0.0000 6.3595 -18.7246 4.0061
-0.3731 17.9069 -7.2811 -7.8521 -1.3821 7.9539 0.0000 0.0000 0.0000 -7.5569 -5.0714 -17.5801 3.2902 11.1507 32.7898 1.0647 -3.6702 -18.6223 0.1665 -2.6290 -7.2475 0.0000 0.0000 0.0000 25.0483 7.4696 -14.4043 -2.2664 -9.4002 27.0555 -0.7765 1.2306 -16.2779 -0.0447 -1.3640 3.7510 2.6552 0.7865 -4.5198 4.8239 0.7871 -0.0505 3.5433 0.3968 2.4540 1.1080 0.5485 -12.3614 -4.9547 2.6741 42.7585 -2.0458 0.6033 18.1667 0.0000 0.0000 0.0000 -88.6637 1.9443 26.0724 14.4291 -23.3449 -2.9961 -0.0000 0.0000 -1.5972 5.2786 32.9605 2.8776 -7.1250 0.0000 -0.0000 -31.2353 60.2443 -12.3208 0.0000 0.0000 0.0000 84.0970 -0.0714 21.0085 -13.9756 22.6998 -2.8187 0.0000 -0.0000 -7.1372 -18.0300 10.6630 -3.4466 7.1250 -0.0000 -0.0000 6.3780 -18.8181 4.0046
-0.3703 17.9072 -7.2833 -7.9281 -1.3781 7.9402 0.0000 0.0000 0.0000 -7.4740 -5.0183 -17.5850 3.2875 11.1465 32.7756 1.0563 -3.7859 -18.5298 0.1418 -2.4272 -6.6878 0.0000 0.0000 0.0000 25.1250 7.4449 -14.4083 -2.2687 -9.4046 27.0694 -0.7756 1.2603 -16.2605 -0.0511 -1.4581 4.0103 2.7317 0.7980 -4.5195 4.8453 0.7970 -0.0359 3.5235 0.4025 2.4693 1.1357 0.5352 -12.3156 -5.0434 2.6836 42.7717 -2.0915 0.6005 18.1658 0.0000 -0.0000 0.0000 -88.6904 2.0066 26.1674 14.4726 -23.4063 -3.0133 -0.0000 0.0000 -1.6995 5.4055 33.0042 2.9505 -7.1250 0.0000 -0.0000 -31.1510 60.3111 -12.3337 0.0000 -0.0000 0.0000 84.1166 -0.0965 21.0331 -14.0044 22.7410 -2.8298 0.0000 -0.0000 -7.2645 -17.8295 10.6806 -3.4113 7.1250 -0.0000 -0.0000 6.5197 -18.8139 4.0953
-0.3666 17.9084 -7.2857 -7.8749 -1.4033 7.9184 0.0000 0.0000 0.0000 -7.5452 -5.0708 -17.5388 3.2861 11.1444 32.7685 1.0467 -3.8022 -18.4403 0.0989 -2.0284 -5.5840 0.0000 0.0000 0.0000 25.0519 7.4603 -14.3876 -2.2681 -9.4035 27.0658 -0.7716 1.2359 -16.2239 -0.0480 -1.4143 3.8895 2.7105 0.8131 -4.4913 4.7953 0.8216 -0.0419 3.4841 0.4148 2.4466 1.2588 0.5248 -12.2028 -5.1371 2.6665 42.7577 -2.1605 0.6026 18.1295 0.0000 -0.0000 0.0000 -88.6428 2.1114 26.2486 14.4991 -23.4437 -3.0238 -0.0000 0.0000 -1.7277 5.3461 33.0766 2.9236 -7.1250 0.0000 -0.0000 -31.2809 60.3582 -12.4268 0.0000 -0.0000 0.0000 84.2066 -0.1610 21.0438 -14.0423 22.7952 -2.8445 0.0000 -0.0000 -7.4259 -17.6655 10.6947 -3.3823 7.1250 -0.0000 -0.0000 6.6356 -18.8106 4.1696
-0.3637 17.9096 -7.2886 -7.7910 -1.4377 7.9001 0.0000 0.0000 0.0000 -7.6636 -5.0524 -17.5251 3.2865 11.1450 32.7705 1.0428 -3.7403 -18.4130 0.0972 -2.0102 -5.5338 0.0000 0.0000 0.0000 24.9467 7.5348 -14.3490 -2.2661 -9.3996 27.0535 -0.7711 1.1698 -16.2358 -0.0447 -1.3651 3.7540 2.6304 0.8224 -4.4542 4.7413 0.8439 -0.0799 3.4728 0.4254 2.3852 1.3973 0.5328 -12.0272 -5.1883 2.6542 42.7290 -2.2099 0.6156 18.0662 -0.0000 -0.0000 0.0000 -88.5859 2.2319 26.3002 14.4882 -23.4284 -3.0195 -0.0000 0.0000 -1.6599 5.2214 33.1166 2.8582 -7.1250 0.0000 -0.0000 -31.4449 60.3625 -12.5031 -0.0000 -0.0000 0.0000 84.3165 -0.2837 21.0245 -14.0885 22.8611 -2.8624 0.0000 -0.0000 -7.4830 -17.6715 10.6567 -3.3717 7.1250 -0.0000 -0.0000 6.6313 -18.8495 4.1611
-0.3611 17.9100 -7.2907 -7.8292 -1.4578 7.8965 0.0000 0.0000 0.0000 -7.6403 -4.9752 -17.5557 3.2892 11.1491 32.7844 1.0447 -3.7167 -18.4335 0.1216 -2.2477 -6.1909 0.0000 0.0000 0.0000 24.9775 7.5609 -14.3347 -2.2651 -9.3977 27.0475 -0.7734 1.1893 -16.2549 -0.0495 -1.4359 3.9491 2.6559 0.8188 -4.4460 4.7515 0.8387 -0.0915 3.4684 0.4230 2.3690 1.4553 0.5619 -11.9234 -5.2012 2.6851 42.7094 -2.2196 0.6371 18.0291 -0.0000 0.0000 0.0000 -88.6022 2.2876 26.2526 14.4719 -23.4053 -3.0130 -0.0000 0.0000 -1.5962 5.2245 33.0871 2.8577 -7.1250 0.0000 -0.0000 -31.4127 60.3383 -12.4705 -0.0000 0.0000 0.0000 84.3844 -0.3355 20.9848 -14.1212 22.9078 -2.8751 0.0000 -0.0000 -7.3683 -17.7326 10.6849 -3.3929 7.1250 -0.0000 -0.0000 6.5882 -18.8160 4.1386
-0.3588 17.9101 -7.2936 -7.9135 -1.4696 7.9272 0.0000 0.0000 0.0000 -7.5432 -4.8891 -17.6519 3.2962 11.1597 32.8204 1.0437 -3.8001 -18.4129 0.1271 -2.2985 -6.3312 0.0000 0.0000 0.0000 25.0613 7.6192 -14.3530 -2.2640 -9.3955 27.0406 -0.7692 1.1562 -16.2192 -0.0476 -1.4085 3.8735 2.7450 0.8212 -4.4473 4.7679 0.8365 -0.0879 3.4353 0.4227 2.3746 1.4675 0.5949 -11.9191 -5.1720 2.7209 42.7196 -2.2020 0.6574 18.0358 0.0000 -0.0000 0.0000 -88.6034 2.2986 26.2689 14.4760 -23.4110 -3.0146 -0.0000 0.0000 -1.6119 5.1904 33.2106 2.8483 -7.1250 0.0000 -0.0000 -31.5681 60.4343 -12.6126 0.0000 -0.0000 0.0000 84.4260 -0.3386 21.0465 -14.1584 22.9607 -2.8896 0.0000 -0.0000 -7.3740 -17.8297 10.7408 -3.4303 7.1250 -0.0000 -0.0000 6.5197 -18.7512 4.1045
-0.3551 17.9102 -7.2990 -7.9641 -1.4770 7.9769 0.0000 0.0000 0.0000 -7.4867 -4.8779 -17.7612 3.3048 11.1729 32.8651 1.0382 -3.8527 -18.3556 0.1156 -2.1921 -6.0368 0.0000 0.0000 0.0000 25.0940 7.6666 -14.4215 -2.2629 -9.3935 27.0342 -0.7643 1.1661 -16.1633 -0.0471 -1.4007 3.8521 2.7746 0.8210 -4.4760 4.7998 0.8307 -0.0628 3.4527 0.4200 2.4169 1.4806 0.6173 -11.9462 -5.2024 2.7651 42.7194 -2.2112 0.6731 18.0471 0.0000 0.0000 0.0000 -88.6369 2.2412 26.3221 14.4651 -23.3957 -3.0103 -0.0000 0.0000 -1.6105 5.1411 33.2279 2.8225 -7.1250 0.0000 -0.0000 -31.6345 60.4371 -12.6446 0.0000 0.0000 0.0000 84.4110 -0.2957 21.1667 -14.1952 23.0131 -2.9040 0.0000 -0.0000 -7.4837 -17.9684 10.7323 -3.4561 7.1250 -0.0000 -0.0000 6.4217 -18.7503 4.0421
-0.3499 17.9096 -7.3048 -7.9814 -1.5204 8.0162 0.0000 0.0000 0.0000 -7.4875 -4.9365 -17.8163 3.3112 11.1825 32.8980 1.0365 -3.7889 -18.3488 0.1107 -2.1451 -5.9069 0.0000 0.0000 0.0000 25.0779 7.6631 -14.5014 -2.2631 -9.3938 27.0351 -0.7629 1.2564 -16.1241 -0.0459 -1.3834 3.8045 2.7341 0.8326 -4.5342 4.8566 0.8402 -0.0062 3.5376 0.4239 2.5064 1.4739 0.6153 -11.9923 -5.3072 2.8079 42.6936 -2.2511 0.6751 18.0499 -0.0000 0.0000 0.0000 -88.7481 2.1128 26.3448 14.4261 -23.3406 -2.9949 -0.0000 0.0000 -1.6176 5.2050 33.0634 2.8452 -7.1250 0.0000 -0.0000 -31.4091 60.3137 -12.4503 -0.0000 0.0000 0.0000 84.3538 -0.2038 21.1817 -14.2095 23.0334 -2.9096 0.0000 -0.0000 -7.4954 -18.0612 10.7831 -3.4913 7.1250 -0.0000 -0.0000 6.3565 -18.6909 4.0089
